<svg xmlns="http://www.w3.org/2000/svg" width="70" height="96" viewBox="0 0 70 96">
    <g fill="none" fill-rule="evenodd">
        <path fill="#FFF" d="M0 0H69.882V96H0z"/>
        <g>
            <path fill="#231F20" d="M42.396 70.928c.445 0 .799.362.799.816 0 .457-.354.815-.804.815-.443 0-.806-.358-.806-.815 0-.454.363-.816.806-.816h.005zm-.005.126c-.357 0-.65.308-.65.69 0 .385.293.69.655.69.361.004.65-.305.65-.687 0-.385-.289-.693-.65-.693h-.005zm-.15 1.161h-.146v-.908c.076-.01.149-.02.257-.02.138 0 .228.028.283.068.053.04.083.102.083.189 0 .119-.08.191-.179.22v.007c.08.015.135.087.152.22.023.142.045.197.058.224h-.15c-.023-.027-.044-.111-.063-.23-.02-.116-.08-.16-.196-.16h-.1v.39zm0-.501h.102c.121 0 .222-.045.222-.156 0-.08-.056-.159-.222-.159-.045 0-.077.003-.103.007v.308zM1.422 75.05h2.19c.18 0 .342-.039.487-.117.145-.078.27-.188.374-.325.105-.138.188-.296.247-.474.06-.18.089-.37.089-.572 0-.2-.036-.39-.106-.57-.07-.179-.164-.334-.28-.468-.116-.135-.25-.24-.402-.32-.153-.08-.311-.118-.475-.118H1.422v2.963zM.17 78.917V70.98h3.455c.358 0 .688.075.99.223.301.15.56.346.776.587.216.244.386.52.51.827.122.31.184.624.184.945 0 .27-.038.526-.111.772-.076.247-.18.474-.314.682-.134.208-.297.39-.492.542-.194.154-.406.267-.636.342l1.867 3.018H4.977l-1.721-2.761H1.422v2.761H.17zM16.806 78.918L16.806 73.206 14.448 77.533 13.752 77.533 11.384 73.206 11.384 78.918 10.13 78.918 10.13 70.98 11.473 70.98 14.1 75.832 16.727 70.98 18.068 70.98 18.068 78.918zM28.948 70.98L28.948 78.918 27.685 78.918 27.685 75.419 23.682 75.419 23.682 78.918 22.429 78.918 22.429 70.98 23.682 70.98 23.682 74.301 27.685 74.301 27.685 70.98zM32.804 74.892c0-.476.086-.95.258-1.424.171-.474.422-.898.754-1.274.332-.377.735-.681 1.214-.911.477-.233 1.016-.346 1.621-.346.722 0 1.343.16 1.855.479.514.32.902.738 1.164 1.253l-.985.658c-.112-.237-.246-.438-.403-.601-.155-.167-.327-.296-.514-.393-.185-.096-.379-.165-.58-.208-.202-.04-.395-.06-.583-.06-.417 0-.782.084-1.095.251-.312.168-.575.39-.788.665-.212.276-.373.586-.48.928-.11.343-.162.686-.162 1.028 0 .388.063.758.19 1.108.126.35.304.66.53.929.227.268.497.48.81.642.315.16.657.24 1.03.24.193 0 .393-.024.597-.072.205-.048.403-.127.594-.236.19-.108.363-.243.524-.408.16-.164.293-.36.398-.592l1.04.592c-.127.299-.306.56-.536.788-.234.228-.492.42-.785.577-.29.157-.598.275-.921.356-.324.083-.644.125-.956.125-.56 0-1.07-.12-1.531-.36-.463-.237-.864-.548-1.199-.931-.334-.385-.595-.821-.78-1.31-.187-.487-.281-.985-.281-1.493" transform="translate(14.118 5.294)"/>
            <path fill="#E22B26" d="M40.318 3.227l.116 2.096c-.612 0-.175.816-.699.845-.932 2.883-3.873 2.475-5.007 5.153-.61.845-1.166 1.689-1.138 2.795l-.551.438c.057.174.291.145.406.145v.553h-.961c-.698-2.125 1.311-4.192.408-6.435-1.484-1.921-4.745-3.494-3.203-6.29.35.118.613-.319.699-.552.03-.146-.086-.205-.145-.291C31 .576 32.543.927 33.59.839c.38.059.671.437.992.7.786-.466 1.077-1.282 2.241-.963l.263-.29c1.338.64 3.29.99 3.232 2.94" transform="translate(14.118 5.294)"/>
            <path fill="#FEFEFE" d="M39.037 2.819c.115.814.145 1.98-.262 2.796-.204.29-.99.435-.99.96h-.263l-3.231 2.941c-.205-2.125-2.185-2.592-3.058-4.338-.785-.146-.612-1.077-.437-1.545.379-.61.875-1.28 1.544-1.659.845-.32 1.63.38 1.805 1.253.814.146.64 1.571 1.544 1.106.465-.407.32-.757.144-1.252-.204-.262-.582-.524-.29-.96.988-.612 3.114-.816 3.494.698" transform="translate(14.118 5.294)"/>
            <path fill="#231F20" d="M20.525 11.604c.594 1.67 2.378 2.69 3.68 3.793 1.753 1.189 3.227 2.52 4.897 3.681 1.218-1.302.367-3.709 1.472-5.18.792-.595 1.358.65 2.18 1.103.794-.142 1.896.34 2.321-.424.255.113.707.424.678.68-2.066 1.5-1.528 4.472-2.575 6.396.17.68-.311 1.076-.141 1.755 1.897 2.35 4.614 3.907 6.935 5.86.397-.17.707.256.793.538-.199-.027-.283.227-.538.142-.878 2.86-.48 5.577-1.217 8.152.623.369 0 .907 0 1.36.509 3.029-1.048 6.086.282 9.088.17.564-.31.99-.142 1.359-.282 1.585.54 4.077 0 5.717.171.397.057 1.076-.14 1.643.14 2.547-.114 4.614-.142 6.907.115.396.622.792.963.423.083.34-.54.906-.425 1.36-1.924.057-4.33-.087-6.37-.425-5.577.594-11.747 1.33-16.984-.113-4.616.367-8.804.509-13.333-.142-.255.509-.906.17-1.36.255-.423-.68-.906.425-1.359-.397.907-1.725-.396-3.426.425-5.293.17-4.048.17-8.494.539-12.654h.142c.055-2.803.933-4.953.679-7.729.31-2.405.028-4.727-.283-7.218-.257-.396-1.049-.112-.935-.792-.227-.821 1.358-1.076 1.075-2.18.227-.255.652-.113.963-.143.624-1.187 1.727-2.008 2.577-2.999 1.613-1.019 2.206-2.832 3.934-3.653 2.858-2.971 6.483-5.094 8.69-8.436.765-.594 1.133-1.245 1.36-2.179-.878-.085-.51-.764-.397-1.358h.934c-.028.141.085.225.143.282.707.028.762-1.046 1.64-.82l-.961 1.64z" transform="translate(14.118 5.294)"/>
            <path fill="#FEFEFE" d="M21.063 14.18c1.16.623 1.925 1.897 3.283 2.322 0 .538.708.848.934 1.076.708.877 1.783 1.472 2.321 2.179 1.897 1.274 2.973 2.803 3.935 4.615 2.548 1.698 4.305 3.85 6.794 5.434-.197 1.558-.197 3.057 0 4.474-.312.255.029 1.105-.284 1.5-.281.452-.565 1.274-.253 1.897h-.284c.114 1.812 0 4.161-.538 5.717.369 1.303-.227 2.774.538 4.078.086 5.434-.056 10.984-.396 16.588-.2.34-.82-.142-.82.397h-.284c-.397-.822-1.132-.115-1.896-.397-2.577.197-5.125.877-8.01.792-2.578.085-5.07-.056-7.476-.395v-.141c-1.84-.54-3.934-.142-5.83 0-2.266.65-4.842-.087-7.36.14v-.14c-.51-.2-1.247-.2-1.756 0v.14c-.113-.396-.708-.227-1.076-.282.086.283-.764-.029-1.103-.114.112-8.436.792-18.117 1.5-26.78-.568-2.095-.623-4.954 0-7.077 1.3-.879 1.755-2.435 3.255-3.255 3.708-5.153 9.625-7.644 12.766-13.306.652-1.358 1.585.17 2.04.537M33.971 15.935c-.254.85-.115 2.322-.934 3.001l-.68 3c-.452.115-.339-.169-.538-.424-.594-.905-1.641-.905-2.038-1.897.424-1.415.566-2.944 1.077-4.359 1.216-.198 1.838 1.444 3.113.679" transform="translate(14.118 5.294)"/>
            <path fill="#231F20" d="M25.758 27.122c2.026 2.673 4.635 4.527 7.968 4.882.497-.007.963-.056 1.429-.124.171-.002.31.146.329.339l-.137.408-4.985 7.48c-.243.512-.932.134-1.047.697l-.22.476c.322.607.447 1.443.198 2.03-.705 1.096-1.782 1.906-2.158 3.17.134.932.727 1.7 1.021 2.592.263.62.367 1.28.354 1.986.499-.197 1.207-.585 1.67-.059.413.48.302 1.198.038 1.726-.403.763-1.347 1.203-2.077 1.61-.175.593-.192 1.32-.8 1.66-.408.265-.873.314-1.359.38-.151.56-.546 1.055-1.149 1.146-.024.438.032 1.018-.396 1.282-.317.293-.727.366-1.141.287-.081.624-.426 1.202-1.02 1.39l-.618.052c-.513.541-1.224.565-1.92.438-.386-.155-.756-.286-1.046-.64-.6.053-1.201-.22-1.501-.67-.204-.268-.343-.588-.464-.889-.854-.086-1.486-.858-1.676-1.623l-.142-.858c-1.512-1.338-1.216-3.701-.587-5.38l.72-1.631c-.536-1.145-1.234-2.19-1.828-3.323-.359-.055-.823-.008-1.038-.354l-1.679-3.079c-.346-.169-.761-.23-.97-.615l-4.12-7.556c-.11-.242 0-.555.098-.774l.472-.317c1.554-.226 3.142-.602 4.311-1.937.527-.484 1.115-1.382 1.934-.956l.26.258 4.353 7.903c.061.332-.34.522-.102.813l1.388 2.763c.201.461-.397.879.082 1.254l.134-.18c.316-1.039.746-2.278.438-3.4.09-1.256 1.477-1.726 2.464-2.03l.447-.816c-.215-.347-.343-.781-.169-1.185 1.229-2.881 2.492-5.721 3.737-8.581.133-.16.36-.136.504-.045" transform="translate(14.118 5.294)"/>
            <path fill="#E22B26" d="M34.095 32.902c-.043.226-.237.436-.372.652-3.36.484-6.237-1.549-8.408-3.95.051-.32.195-.593.336-.864 2.212 2.366 4.905 4.495 8.444 4.162" transform="translate(14.118 5.294)"/>
            <path fill="#FEFEFE" d="M32.97 34.568c-.062.224-.234.417-.369.615-3.268.129-5.91-1.573-8.048-3.894.1-.24.146-.502.32-.695 2.16 2.284 4.771 4.1 8.097 3.974" transform="translate(14.118 5.294)"/>
            <path fill="#E22B26" d="M31.976 36.057c-.133.198-.239.665-.6.628-3.097-.024-5.527-1.553-7.603-3.562.05-.3.173-.574.335-.846 2.148 2.036 4.624 3.875 7.868 3.78M15.619 38.445c.035.98-1.064 1.424-1.734 1.989l-1.456.772c-.093.164-.17.367-.052.53.567.633 1.209-.222 1.762-.395.67-.374 1.272-.85 1.837-1.327l1.342 2.45c-.252.797-1.111 1.344-1.785 1.754-.805.398-1.643.925-2.563.737-.692-1.104-1.265-2.252-1.94-3.354-.34-.035-.713-.13-.847-.507l-3.689-6.69c-.053-.234.235-.244.358-.327 1.798-.183 3.47-1.392 4.765-2.658l.224.06 3.778 6.966z" transform="translate(14.118 5.294)"/>
            <path fill="#FEFEFE" d="M30.992 37.47c-.084.26-.24.473-.414.686-3.013.06-5.448-1.411-7.51-3.343-.01-.306.173-.594.315-.868 2.122 1.938 4.511 3.5 7.609 3.525" transform="translate(14.118 5.294)"/>
            <path fill="#E22B26" d="M29.965 38.917c.015.231-.21.361-.342.54-2.834.019-5.152-1.304-7.164-2.982-.129-.243.036-.533.15-.732 2.067 1.702 4.414 3.126 7.356 3.174M28.439 40.39c-.133.543-.475 1.101-1.056 1.368-1.135.612-2.552.413-3.664-.14-.844-.544-1.707-1.09-1.768-2.19-.035-.615.213-1.164.508-1.632 1.765 1.289 3.737 2.253 5.98 2.593" transform="translate(14.118 5.294)"/>
            <path fill="#FEC528" d="M20.92 39.21c-.192 1.148.54 2.237 1.457 2.828 1.406 1.041 3.732 1.524 5.33.671l.61-.36c.14.13.17.402.091.604-.627 1.103-1.598 2-2.1 3.176-.217 1.776 1.434 3.055 1.212 4.87-.103 1.215-.17 2.45-.444 3.65-.146-1.414-1.092-3.022-2.459-3.715-.353-.092-.651.011-.932.137-.25.205-.41.455-.513.712-.344-.187-.706-.013-1.02.071-.548.307-.832.834-.82 1.487-.496.16-.888.638-.959 1.147.04.349-.057.76.122 1.065-.943 1.188-.578 2.89-.012 4.115l.34.416c-.23.188-.588.133-.845.03-1.132-.537-1.07-1.926-.992-3.067-.026-.692.468-1.6-.032-2.148-.237-.119-.466.068-.543.253-.346 1.343-.64 2.94-.258 4.26-.828-.523-.911-1.583-.839-2.495.042-1.164.36-2.24.603-3.328.02-.188-.081-.332-.22-.462-.236-.14-.466.068-.562.25-.484 1.387-.66 2.937-.617 4.415-.45-.102-.601-.673-.735-1.068-.19-1.34.272-2.692.554-3.965-.018-.211-.006-.518-.287-.565-.714.044-.668.929-.894 1.46l-.194 1.34c-.605-.826-.305-2.098-.09-3.09.942-2.51 2.428-4.713 3.662-7.076.557-1.342 1.379-2.658 1.272-4.257-.116-.374-.044-.884.163-1.227.272-.24.592-.38.923-.443l.027.31z" transform="translate(14.118 5.294)"/>
            <path fill="#FEFEFE" d="M17.713 44.439c-.615 1.335-1.335 2.601-2.075 3.867l-.058-.006-1.339-2.47c1.084-.503 2.208-1.022 3.176-1.88.144.09.196.325.296.489" transform="translate(14.118 5.294)"/>
            <path fill="#231F20" d="M20.234 46.95c-.027.458-.204.88-.206 1.283.449-.644.918-1.498 1.677-1.822.229.022.361.208.421.387.208 1.725-.295 3.492-.852 5.026-.186-.059-.382-.214-.557-.364.33-1.173.863-2.306 1.032-3.59.011-.305.23-.743-.037-.961-.548.309-.779.898-1.135 1.379-.374.688-.717 1.421-1.036 2.116-.187-.23-.977-.367-.605-.827.472-1.08.932-2.223 1.023-3.497-.069-.081-.186-.055-.247-.004-.939.938-1.548 2.045-2.122 3.173l-.517-.377c.754-1.207 1.394-2.616 2.768-3.338.152.015.227.023.333.128.23.369.063.887.06 1.289" transform="translate(14.118 5.294)"/>
            <path fill="#FEFEFE" d="M29.693 51.85c.045.693-.679 1.041-1.164 1.297-.059.013-.198.057-.167-.053l.098-.966c.364-.194.696-.449 1.102-.484l.131.206zM25.913 53.65c.18.496.628 1.174.12 1.658-.094-.01-.145.1-.235.053-.423-1.115-1.001-2.207-1.927-3.103.059-.187.045-.438.286-.548.984.1 1.311 1.226 1.756 1.94M24.26 54.115c.239.847 1.438 1.867.4 2.644-.548-1.185-1.35-2.155-2.446-3.254-.096-.2-.047-.482.049-.665.112-.16.271-.22.427-.263.771.136 1.169.942 1.57 1.538M23.18 55.691c.412.652.745 1.337.862 2.076-.006.25-.197.441-.399.535l-.45-.084c-.359-.992-.555-2.468-1.825-2.77-.18-.303-.29-.736-.117-1.12.172-.194.476-.162.653-.03.53.245.984.884 1.276 1.393M21.858 56.859c.31.7.468 1.425.483 2.211-.058.205-.201.477-.47.488-.756-.095-.78-.997-1.032-1.54-.122-.49-.096-1.12.159-1.572.337-.291.738.094.86.413" transform="translate(14.118 5.294)"/>
            <path fill="#231F20" d="M42.132 64.54h.18c.203 0 .377-.074.377-.264 0-.138-.099-.274-.377-.274-.08 0-.136.007-.18.013v.525zm0 .861h-.248v-1.553c.132-.018.255-.037.441-.037.234 0 .389.05.482.118.094.068.142.173.142.32 0 .205-.138.33-.303.378v.013c.136.025.23.149.26.377.037.242.075.335.099.384h-.26c-.036-.049-.075-.192-.106-.396-.037-.198-.136-.272-.333-.272h-.174v.668zm.26-1.985c-.612 0-1.115.525-1.115 1.175 0 .662.503 1.18 1.12 1.18.62.008 1.115-.518 1.115-1.174 0-.656-.495-1.181-1.114-1.181h-.007zm.006-.217c.761 0 1.368.617 1.368 1.392 0 .786-.607 1.397-1.375 1.397-.759 0-1.378-.611-1.378-1.397 0-.775.62-1.392 1.378-1.392h.007z" transform="translate(14.118 5.294)"/>
        </g>
    </g>
</svg>
