<?xml version="1.0" encoding="utf-8"?>
<!-- Generator: Adobe Illustrator 16.0.0, SVG Export Plug-In . SVG Version: 6.00 Build 0)  -->
<!DOCTYPE svg PUBLIC "-//W3C//DTD SVG 1.1//EN" "http://www.w3.org/Graphics/SVG/1.1/DTD/svg11.dtd">
<svg version="1.1" id="Layer_1" xmlns="http://www.w3.org/2000/svg" xmlns:xlink="http://www.w3.org/1999/xlink" x="0px" y="0px"
	 width="574.992px" height="1000px" viewBox="0 0 574.992 1000" enable-background="new 0 0 574.992 1000" xml:space="preserve">
<g>
	<path fill-rule="evenodd" clip-rule="evenodd" fill="#231F20" d="M515.122,838.055c-5.877-14.157,0.799-47.285,0-68.892
		c-0.812-21.587,0.556-38.87,1.743-55.802c1.563-22.657-6.865-46.414-4.358-67.142c0.461-3.884,2.773-6.944,2.615-10.452
		c-0.245-5.113-3.904-9.814-5.236-14.829c-7.351-27.767,2.154-59.93,0-91.555c-0.375-5.523-2.143-10.626-1.75-15.698
		c0.301-3.82,2.709-7.676,2.62-11.333c-0.069-3.038-2.499-6.6-2.62-9.584c-0.281-7.374,2.822-16.206,3.494-24.423
		c2.175-26.689,2.838-52.451,7.837-75.854c0.856-3.793,8.992-4.026,6.987-7.848c-1.367-4.165-6.821-4.231-11.332-5.226
		c-22.209-18.546-48.097-33.625-70.635-53.2c-6.871-5.972-18.225-14.77-20.055-21.795c-0.942-3.628,0.527-16.935,1.744-22.673
		c1.932-9.113,6.184-22.066,8.723-35.752c2.451-13.257,6.296-26.915,10.455-33.998c3.3-5.621,9.998-8.45,11.348-15.7
		c-2.197-1.863-4.869-3.271-6.976-5.232c-5.806,3.492-11.862,6.745-22.672,5.232c-0.425-3.604-5.937,1.077-8.292-0.604
		c-3.027,0.155-1.188-1.364-4.372-3.11c-0.036,1.289-3.079-2.839-3.041-1.519c-6.817-2.552-9.331-11.179-17.435-10.465
		c-21.306,1.888-6.125,60.965-23.543,69.759c-26.551-19.531-61.483-42.542-89.804-65.401c-8.144-6.568-23.546-18.205-23.546-28.771
		c0-8.649,10.152-13.654,9.597-21.802c-10.582-0.972-10.149,9.041-18.32,10.471c-3.078-2.737-8.589-3.031-14.82-2.618
		c-5.708,7.137-1.29,16.875,4.364,20.055c-2.384,13.235-11.605,19.702-18.319,27.899c-8.379,10.241-14.783,21.546-24.41,31.389
		c-18.12,18.515-39.396,36.047-58.415,53.19c-10.252,9.233-18.377,20.69-27.907,27.903c-2.632,1.996-6.12,2.327-8.719,4.358
		c-10.814,8.44-17.888,21.397-27.031,31.395c-16.125,17.608-35.62,31.809-47.959,51.444c-2.479,1.155-6.954-0.177-10.456,1.746
		c3.207,14.207-18.688,19.039-13.955,32.257c1.82,5.098,8.697,2.959,12.209,7.848c13.977,63.033,4.922,134.517-2.621,201.425
		c-6.032,53.484,4.394,108.828-2.613,160.437c-0.436,3.183-2.256,6.309-2.618,9.59c-1.67,15.205,4.137,28.588,3.488,41.854
		c-0.325,6.65-4.388,11.296-2.621,18.307c8.382-0.303,18.528,4.114,27.907,2.617c3.609-0.574,6.233-3.154,9.597-3.486
		c12.298-1.23,26.537,2.896,40.107,3.486c32.314,1.415,65.678-0.324,94.165-2.617c12.995-1.045,26.366-4.248,37.496-3.486
		c9.469,0.647,19.463,3.894,28.782,5.235c49.662,7.137,107.508,2.315,155.194-3.489c13.062-1.601,26.879-5.435,40.113-5.235
		c27.131,0.407,53.83,6.792,81.085,3.489c1.983-5.286,4.59-9.941,6.109-15.697C520.858,844.107,517.088,842.816,515.122,838.055
		 M394.785,200.657c15.866-0.521,22.017,15.211,38.367,8.716c-1.176,10.162-0.383,21.391-4.362,30.521
		c-1.381,3.199-4.781,5.542-6.093,8.722c-4.951,11.965-2.422,25.635-8.721,38.364c-6.539-0.18-6.835-6.941-12.209-11.333
		c-6.176-5.037-19.149-8.792-20.923-16.563C379.615,253.763,390.054,205.031,394.785,200.657 M495.936,460.502
		c-0.871,5.396-5.194,10.219-6.103,15.691c-0.619,3.729,0.461,7.762,0,12.201c-1.006,9.55-0.848,28.728-1.743,44.476
		c-0.627,11.09-4.719,22.032-5.243,32.267c-0.498,9.984,0.827,29.39,2.622,39.227c1.397,7.616,5.353,12.438,6.109,21.811
		c2.665,33.334,1.312,70.318,0.865,106.375c-0.442,35.48,1.316,71.035-2.61,104.634c-2.809,1.548-9.062-0.331-9.589,3.489
		c-5.073,1.09-7.24-3.738-12.218-4.367c-5.109-0.641-13.301,0.553-18.301,0.878c-29.961,1.917-61.323,10.671-95.041,12.212
		c-32.226,1.452-67.492,4.645-101.144-1.75c-4.473-0.853-8.48-3.436-13.089-4.364c-30.009-6.113-62.861,5.817-88.932,7.854
		c-11.635,0.906-25.195,0.56-37.501,0c-12.151-0.553-24.554,0.957-34.876,0c-4.294-0.397-8.117-3.164-12.209-3.489
		c-13.855-1.105-28.274,4.411-41.851,0c-3.662-102.311,1.26-206.541,6.979-306.921c0.821-14.416,3.464-29.662,2.61-42.729
		c-0.649-10.093-5.979-22.938-6.976-36.622c-1.132-15.641-1.353-43.4,3.488-54.939c1.829-4.329,9.346-10.765,13.961-16.56
		c4.627-5.826,9.107-12.072,13.077-16.569c4.907-5.573,12.067-9.334,16.558-13.951c7.129-7.319,12.147-16.626,19.186-24.413
		c40.682-45.027,94.4-79.703,129.917-131.671c3.919-5.707,16.294-29.279,21.806-27.893c9.15,2.286,21.328,15.359,29.641,21.802
		c10.85,8.399,20.03,17.718,30.518,20.049c22.219,28.174,55.466,44.651,78.479,71.499c7.528,8.772,11.454,20.182,20.056,29.655
		c5.803,6.385,15.866,10.484,23.538,16.56c21.903,17.337,43.437,37.642,67.139,53.185
		C490.808,412.835,499.822,436.326,495.936,460.502"/>
	<path fill-rule="evenodd" clip-rule="evenodd" fill="#231F20" d="M393.037,527.637c17.305-26.825,34.891-54.681,51.45-81.093
		c5.551-8.842,13.938-17.563,13.952-28.771c-50.807,5.169-93.731-22.045-116.835-47.086c-5.201-5.624-10.794-17.726-17.438-13.08
		c-4.554,7.329-8.723,18.177-13.088,28.777c-7.868,19.104-15.643,38.52-23.54,58.426c-6.057,15.265-15.509,28.49-8.714,43.584
		c-4.388,14.135-22.523,12.357-31.394,22.68c-8.003,9.3-2.24,22.888-4.364,36.625c-1.146,7.417-2.643,17.453-8.719,21.789
		c5.662-24.591-22.463-36.382-17.435-60.16c-16.708-28.639-31.756-53.73-48.83-82.839c-5.995-10.206-10.375-24.075-20.06-24.413
		c-9.379-0.332-13.983,8.561-19.178,13.957c-12.852,13.339-21.792,18.796-43.595,24.407c-8.299,2.138-20.28,2.507-20.929,13.079
		c-0.497,8.147,9.685,19.648,13.942,27.038c15.993,27.678,29.833,52.748,45.351,77.604c3.676,1.844,7.579,3.474,11.34,5.229
		c8.136,14.239,15.484,29.264,25.275,41.851c3.286,0.78,7.384,0.752,10.466,1.74c4.554,5.634,8.078,12.771,13.077,20.934
		c3.639,5.921,12.022,15.268,12.209,21.795c0.16,5.435-5.717,14.996-7.844,20.927c-4.705,13.103-8.277,25.155-6.103,42.726
		c1.607,13.045,10.902,20.44,14.813,29.648c5.468,12.847,7.421,28.882,25.286,30.521c2.29,4.446,4.086,11.251,8.727,14.826
		c4.156,3.171,9.833,1.983,16.567,4.352c5.232,1.841,8.798,6.776,13.078,7.851c11.937,2.993,20.445-3.139,27.904-6.11
		c5.3-2.104,10.005-1.896,12.209-3.489c5.195-3.746,5.088-10.794,8.711-15.688c13.889,0.515,18.719-8.036,19.188-20.934
		c8.059-2.403,11.056-9.858,15.689-15.685c15.101-2.05,24.59-9.71,25.294-26.159c8.207-6.865,31.997-16.487,30.512-35.753
		c-0.915-11.902-14.006-15.205-25.287-9.588c-2.695-7.351-1.579-12.915-3.479-19.184c-4.108-13.471-17.214-25.806-16.564-39.232
		c0.937-19.524,28.078-28.698,28.774-49.72c0.239-7.431-4.834-13.639-4.366-19.171C379.712,532.636,383.072,531.588,393.037,527.637
		 M389.557,677.608c-0.008,11.327-8.214,14.46-15.687,18.315C368.469,683.463,380.573,672.885,389.557,677.608 M318.93,403.822
		c28.754,23.27,55.761,48.289,107.246,48.826c-3.049,12.824-22.25,8.008-32.262,6.107c-23.625-4.469-39.519-14.122-56.672-27.031
		C329.284,425.729,310.747,413.857,318.93,403.822 M185.519,604.363c13.666-7.551,28.382-14.047,39.241-24.407
		c10.312,4.544-2.146,21.126-6.973,30.521c-5.187,10.086-9.497,19.171-13.09,25.291
		C196.044,627.551,190.828,615.924,185.519,604.363 M291.035,781.375c-12.375,3.877-21.146-29.296-13.962-40.111
		C287.878,729.201,302.677,777.718,291.035,781.375 M291.035,732.549c-4.524-3.553-5.858-1.261-10.467-6.104
		c-6.522-13.26,3.643-18.812,13.938-10.472c10.195,8.252,21.648,30.495,22.681,44.475
		C301.976,775.255,303.916,742.688,291.035,732.549 M326.776,743.01c-9.042-8.352-14.093-24.545-23.54-33.135
		c-3.723-3.369-11.491-5.699-12.201-10.455c-1.306-8.685,8.501-11.296,15.697-6.114C314.824,699.16,336.848,732.896,326.776,743.01
		 M340.739,724.695c-6.184-5.612-6.63-13.251-12.218-21.803c-3.071-4.695-14.865-13.243-14.821-18.299
		c0.03-4.904,3.51-7.175,9.589-5.236c5.619,1.791,20.561,23.1,21.792,34.004C345.638,718.117,345.803,723.994,340.739,724.695
		 M346.832,606.109c-2.982,19.032,15.115,33.504,17.442,52.321c1.478,11.952-0.296,25.364-1.745,39.233
		c-0.732,7.014-0.97,18.928-6.971,18.309c-4.049-0.397-3.579-5.811-5.239-10.455c-5.655-15.919-31.999-51.849-44.472-21.802
		c-13.486-3.29-23.042,4.039-21.794,18.315c-9.668,3.06-15.603,15.372-10.467,27.899c-13.114,16.878-4.653,47.838,6.982,60.166
		c-3.855,4.565-11.499,5.529-17.438,3.489c-20.668-7.118-14.523-44.869-15.699-67.142c-7.987,15.334-7.347,43.773-1.743,61.034
		c-31.605-7.711-17.707-58.505-14.824-84.586c-10.318,13.229-7.435,39.653-9.597,61.045c-27.797-3.91-12.862-50.81-11.332-72.378
		c-8.605,7.667-7.55,25.004-9.589,39.255c-13.302-4.446-13.973-31.225-8.719-49.71c6.016-21.161,20.265-43.923,32.254-66.28
		c10.856-20.21,26.622-45.391,28.782-68.872c1.821-19.717-4.357-37.694,20.056-37.495c-5.121,51.254,62.082,65.847,96.785,42.729
		C382.703,573.277,349.852,586.888,346.832,606.109 M297.135,457.884c0.627-4.017,1.08-8.22,4.354-9.584
		c27.219,20.15,53.707,41.039,99.399,42.72c0.461,4.821-2.941,5.775-4.361,8.715C348.698,500.486,322.086,480.005,297.135,457.884"
		/>
	<path fill="#231F20" d="M28.729,936.215c0,2.359,0.652,3.988,3.173,4.475c3.093,0.568,3.418,0.973,3.418,1.541
		c0,0.575-0.24,0.9-1.055,0.9c-1.792,0-4.811-0.325-8.715-0.325c-4.56,0-6.758,0.325-8.789,0.325c-0.814,0-1.22-0.325-1.22-1.061
		c0-0.569,0.324-1.055,1.704-1.22c2.613-0.249,3.505-1.79,3.505-3.42v-39.89c0-2.684-0.575-3.584-2.931-3.754
		c-1.873-0.155-2.278-0.478-2.278-1.052c0-0.812,0.563-1.22,1.463-1.22c2.279,0,4.641,0.326,8.14,0.326
		c4.31,0,7.249-0.326,11.966-0.326c8.871,0,14.247,5.7,14.247,13.355c0,7.24-5.94,11.229-12.532,12.129v0.154
		c2.438,0.414,3.41,1.557,4.634,3.995c6.677,13.437,7.5,18.154,9.855,19.701c1.622,1.064,2.926,0.325,2.926,1.551
		c0,0.404-0.239,0.729-0.973,0.729c-1.873,0-3.745-0.325-5.618-0.325c-2.04,0-2.688,0.325-4.311,0.325
		c-0.575,0-0.98-0.407-1.472-1.547l-10.012-21.821c-0.491-1.052-1.058-1.708-2.607-1.708c-1.795,0-2.521,0.414-2.521,1.955V936.215
		 M28.729,913.82c0,1.632,0.243,1.954,2.607,1.954c7.324,0,11.232-3.006,11.232-11.074c0-5.854-3.908-10.913-8.796-10.913
		c-4.065,0-5.124,1.07-5.043,4.322V913.82z"/>
	<path fill="#231F20" d="M70.571,943.832c-10.167,0-16.512-10.898-16.512-21.088c0-10.197,6.346-21.095,16.512-21.095
		c10.173,0,16.506,10.897,16.506,21.095C87.077,932.934,80.744,943.832,70.571,943.832 M70.571,903.44
		c-6.535,0-9.374,11.421-9.374,19.304c0,7.882,2.839,19.287,9.374,19.287c6.542,0,9.378-11.405,9.378-19.287
		C79.95,914.861,77.113,903.44,70.571,903.44"/>
	<path fill="#231F20" d="M115.406,942.357c0,1.155-0.535,1.475-1.192,1.475c-0.785,0-1.116-0.642-1.585-1.408l-17.493-30.587
		c-0.666-1.149-0.862-1.599-1.058-1.599s-0.196,0.19-0.196,1.409v24.492c0,3.142,0.254,4.55,3.035,5.125
		c1.253,0.259,2.312,0.192,2.312,1.026c0,0.322,0,0.773-0.792,0.773c-1.655,0-3.507-0.259-5.482-0.259
		c-1.844,0-2.908,0.259-4.291,0.259c-0.995,0-1.456-0.133-1.456-0.9c0-0.448,0.401-0.767,1.784-0.899
		c2.444-0.192,3.041-0.9,3.041-6.79v-27.703c0-2.049-0.401-2.182-2.249-2.564c-1.453-0.318-1.921-0.508-1.921-1.025
		c0-0.449,0.332-0.768,1.262-0.768c0.66,0,1.187,0.192,3.96,0.192c2.248,0,2.905-0.192,3.502-0.192c0.851,0,1.183,1.026,2.514,3.4
		l13.136,23.719c0.459,0.834,0.862,1.475,0.992,1.475c0.332,0,0.332-0.123,0.332-1.282v-19.938c0-4.298-0.792-5.258-2.839-5.58
		c-1.195-0.192-1.921,0-1.921-0.894c0-0.773,0.668-0.899,1.391-0.899c0.854,0,1.784,0.259,4.424,0.259
		c2.312,0,2.772-0.259,3.831-0.259c0.792,0,1.053,0.318,1.053,0.768c0,0.767-0.586,0.899-1.78,1.025
		c-1.781,0.189-2.312,1.282-2.312,2.823V942.357"/>
	<path fill="#231F20" d="M127.248,928.576c-0.999,0-0.999,0.383-1.918,4.1c-1.323,5.381-1.655,6.214-1.655,6.666
		c0,0.833,0.535,1.475,1.986,1.923c1.253,0.385,3.101,0.133,3.101,0.966c0,0.383-0.202,0.834-1.191,0.834
		c-0.59,0-3.163-0.259-4.748-0.259c-3.175,0-4.299,0.259-4.956,0.259c-0.459,0-0.663-0.192-0.663-0.641
		c0-0.967,0.859-0.585,2.248-1.159c1.519-0.642,2.176-3.657,7.528-20.769c5.815-18.597,5.346-18.847,6.542-18.847
		c1.378,0,0.851,0.765,8.976,26.419c3.3,10.389,3.698,12.748,5.021,13.196c1.516,0.518,2.308,0.319,2.308,1.093
		c0,0.448-0.202,0.707-1.389,0.707c-1.055,0-3.17-0.259-5.608-0.259c-3.571,0-5.943,0.259-6.669,0.259
		c-0.729,0-0.859-0.325-0.859-0.773c0-0.575,0.657-0.509,2.899-1.026c0.862-0.192,1.127-0.957,1.127-1.475
		c0-0.575-0.335-1.415-1.655-6.025c-1.313-4.68-1.313-5.188-2.176-5.188H127.248 M134.97,926.776c0.461,0,0.597,0,0.597-0.192
		c0-0.442-0.401-1.598-2.908-10.064c-0.988-3.331-0.988-3.59-1.253-3.59c-0.332,0-0.332,0.382-2.514,7.948
		c-1.383,4.999-1.644,5.517-1.644,5.706c0,0.133,0.128,0.192,0.722,0.192H134.97z"/>
	<path fill="#231F20" d="M160.67,937.607c0,2.375,1.323,3.724,3.631,3.657c2.779-0.06,5.09-1.667,6.6-4.938
		c1.791-3.844,1.525-4.678,2.378-4.678c0.537,0,0.667,0.199,0.667,1.668v8.207c0,1.156-0.266,1.541-1.254,1.541
		c-1.986,0-4.955-0.259-12.685-0.259c-4.487,0-7.658,0.259-9.107,0.259c-0.799,0-1.058-0.192-1.058-0.9
		c0-0.515,0.259-0.767,1.058-0.899c2.574-0.448,3.3-0.642,3.3-3.458V906.39c0-1.282-0.461-2.116-1.781-2.183
		c-1.851-0.06-2.447-0.192-2.447-0.959c0-0.642,0.461-0.834,1.253-0.834c1.254,0,2.577,0.259,6.54,0.259
		c4.49,0,6.009-0.259,6.868-0.259c0.922,0,1.253,0.192,1.253,0.768c0,0.833-0.535,0.899-2.308,1.025
		c-2.116,0.133-2.908,0.834-2.908,2.441V937.607"/>
	<path fill="#231F20" d="M179.87,907.091c0-1.728-0.459-2.109-2.104-2.109c-0.793,0-1.527,0.126-2.053,0.126
		c-0.864,0-0.988-0.192-0.988-0.834c0-1.342,9.641-2.624,14.924-2.624c12.276,0,19.94,7.948,19.94,20.835
		c0,9.032-5.15,20.58-17.695,20.58c-2.839,0-5.416-0.259-7.923-0.259c-5.353,0-7.2,0.259-8.583,0.259
		c-0.401,0-0.663-0.385-0.663-0.834c0-0.707,0.332-0.833,2.307-0.966c2.117-0.06,2.839-1.149,2.839-4.617V907.091 M186.34,936.14
		c0,3.65,1.784,5.125,5.22,5.125c6.802,0,10.902-7.948,10.902-17.946c0-11.797-4.756-19.878-12.019-19.878
		c-2.514,0-4.104,0.899-4.104,3.849V936.14z"/>
	<path fill="#231F20" d="M266.603,893.553c0.587-1.629,0.671-2.037,2.098-2.037c0.837,0,2.348,0.326,6.204,0.326
		c1.678,0,3.603-0.326,5.122-0.326c0.749,0,1.168,0.326,1.253,0.895c0.081,0.899-0.59,1.222-2.018,1.377
		c-3.351,0.413-3.436,0.738-3.436,2.529c0,17.828,0.841,26.951,0.841,40.385c0,2.928,0.338,3.42,2.688,4.149
		c1.759,0.568,2.761,0.165,2.761,1.298c0,0.821-0.671,0.982-1.673,0.982c-1.936,0-3.271-0.325-7.882-0.325
		c-6.375,0-8.472,0.325-9.899,0.325c-0.674,0-1.006-0.407-1.006-0.982c0-0.891,0.671-0.973,2.853-1.298
		c2.931-0.404,3.602-0.817,3.602-4.401c0-5.365-0.339-28.49-0.755-35.324h-0.166c-13.498,38.179-13.084,41.681-14.752,41.681
		c-1.769,0-0.763-1.469-14.761-41.681h-0.172c-0.583,9.771-0.756,31.092-0.756,34.516c0,4.231,0.928,4.724,4.106,5.292
		c2.099,0.325,2.521,0.651,2.521,1.216c0,0.575-0.257,0.982-1.094,0.982c-1.17,0-2.35-0.325-6.622-0.325
		c-3.695,0-5.452,0.325-6.788,0.325c-1.179,0-1.345-0.161-1.345-0.729c0-0.817,0.676-0.982,3.521-1.551
		c1.674-0.321,2.099-1.304,2.264-5.132c0.837-18.314,1.426-36.062,1.426-39.238c0-1.955-0.332-2.441-4.695-2.693
		c-0.837,0-1.096-0.398-1.096-1.217c0-0.568,0.591-1.055,1.428-1.055c1.77,0,2.606,0.326,5.711,0.326
		c3.185,0,4.612-0.326,5.275-0.326c1.759,0,2.102,0.568,3.104,3.502L255.2,925.87h0.166L266.603,893.553"/>
	<path fill="#231F20" d="M299.234,942.031c2.378,0,4.818-1.342,6.208-6.666c1.514-5.766,1.651-5.898,2.307-5.898
		c1.126,0,1.262,0.133,1.262,7.181c0,3.335-0.202,4.235-0.995,4.937c-0.922,0.84-4.553,2.248-8.919,2.248
		c-10.426,0-16.836-9.941-16.836-21.23c0-12.938,7.469-20.952,16.777-20.952c3.428,0,6.274,0.642,8.252,1.856
		c0.726,0.442,0.792,0.575,0.792,5.065c0,4.74-0.137,4.999-1.262,4.999c-0.585,0-1.046-0.641-2.369-4.231
		c-1.917-5.191-3.504-5.898-5.744-5.898c-5.943,0-9.31,5.64-9.31,18.912C289.397,935.751,294.153,942.031,299.234,942.031"/>
	<path fill="#231F20" d="M316.431,897.459c0-2.197-0.586-2.69-2.68-2.69c-1.011,0-1.938,0.161-2.604,0.161
		c-1.088,0-1.254-0.233-1.254-1.055c0-1.708,12.24-3.338,18.95-3.338c15.592,0,25.316,10.093,25.316,26.463
		c0,11.479-6.528,26.131-22.47,26.131c-3.598,0-6.868-0.325-10.065-0.325c-6.786,0-9.136,0.325-10.9,0.325
		c-0.497,0-0.831-0.486-0.831-1.061c0-0.895,0.417-1.055,2.933-1.22c2.688-0.079,3.604-1.459,3.604-5.867V897.459 M324.649,934.343
		c0,4.636,2.265,6.508,6.629,6.508c8.638,0,13.833-10.093,13.833-22.796c0-14.978-6.043-25.231-15.261-25.231
		c-3.185,0-5.201,1.134-5.201,4.879V934.343z"/>
	<path fill="#231F20" d="M373.504,943.832c-10.167,0-16.513-10.898-16.513-21.088c0-10.197,6.346-21.095,16.513-21.095
		c10.173,0,16.506,10.897,16.506,21.095C390.01,932.934,383.677,943.832,373.504,943.832 M373.504,903.44
		c-6.535,0-9.374,11.421-9.374,19.304c0,7.882,2.839,19.287,9.374,19.287c6.541,0,9.38-11.405,9.38-19.287
		C382.884,914.861,380.045,903.44,373.504,903.44"/>
	<path fill="#231F20" d="M418.331,942.357c0,1.155-0.519,1.475-1.182,1.475c-0.793,0-1.118-0.642-1.586-1.408l-17.505-30.587
		c-0.655-1.149-0.852-1.599-1.055-1.599c-0.199,0-0.199,0.19-0.199,1.409v24.492c0,3.142,0.266,4.55,3.046,5.125
		c1.254,0.259,2.309,0.192,2.309,1.026c0,0.322,0,0.773-0.793,0.773c-1.651,0-3.504-0.259-5.479-0.259
		c-1.851,0-2.909,0.259-4.3,0.259c-0.986,0-1.448-0.133-1.448-0.9c0-0.448,0.396-0.767,1.781-0.899
		c2.447-0.192,3.044-0.9,3.044-6.79v-27.703c0-2.049-0.4-2.182-2.251-2.564c-1.457-0.318-1.919-0.508-1.919-1.025
		c0-0.449,0.334-0.768,1.254-0.768c0.665,0,1.195,0.192,3.971,0.192c2.245,0,2.909-0.192,3.499-0.192c0.852,0,1.183,1.026,2.514,3.4
		l13.129,23.719c0.469,0.834,0.87,1.475,0.994,1.475c0.337,0,0.337-0.123,0.337-1.282v-19.938c0-4.298-0.793-5.258-2.85-5.58
		c-1.183-0.192-1.909,0-1.909-0.894c0-0.773,0.655-0.899,1.382-0.899c0.861,0,1.788,0.259,4.432,0.259
		c2.312,0,2.772-0.259,3.83-0.259c0.793,0,1.055,0.318,1.055,0.768c0,0.767-0.594,0.899-1.78,1.025
		c-1.789,0.189-2.32,1.282-2.32,2.823V942.357"/>
	<path fill="#231F20" d="M430.181,928.576c-1,0-1,0.383-1.922,4.1c-1.32,5.381-1.644,6.214-1.644,6.666
		c0,0.833,0.52,1.475,1.979,1.923c1.249,0.385,3.092,0.133,3.092,0.966c0,0.383-0.188,0.834-1.183,0.834
		c-0.591,0-3.162-0.259-4.752-0.259c-3.171,0-4.295,0.259-4.952,0.259c-0.467,0-0.663-0.192-0.663-0.641
		c0-0.967,0.859-0.585,2.248-1.159c1.52-0.642,2.176-3.657,7.528-20.769c5.815-18.597,5.347-18.847,6.537-18.847
		c1.383,0,0.863,0.765,8.98,26.419c3.308,10.389,3.69,12.748,5.019,13.196c1.519,0.518,2.311,0.319,2.311,1.093
		c0,0.448-0.195,0.707-1.389,0.707c-1.055,0-3.171-0.259-5.615-0.259c-3.559,0-5.937,0.259-6.669,0.259
		c-0.724,0-0.859-0.325-0.859-0.773c0-0.575,0.663-0.509,2.905-1.026c0.862-0.192,1.125-0.957,1.125-1.475
		c0-0.575-0.332-1.415-1.646-6.025c-1.318-4.68-1.318-5.188-2.183-5.188H430.181 M437.903,926.776c0.461,0,0.594,0,0.594-0.192
		c0-0.442-0.397-1.598-2.905-10.064c-0.988-3.331-0.988-3.59-1.26-3.59c-0.325,0-0.325,0.382-2.507,7.948
		c-1.384,4.999-1.644,5.517-1.644,5.706c0,0.133,0.124,0.192,0.722,0.192H437.903z"/>
	<path fill="#231F20" d="M463.595,937.607c0,2.375,1.328,3.724,3.64,3.657c2.78-0.06,5.092-1.667,6.6-4.938
		c1.787-3.844,1.525-4.678,2.378-4.678c0.537,0,0.663,0.199,0.663,1.668v8.207c0,1.156-0.262,1.541-1.254,1.541
		c-1.977,0-4.951-0.259-12.675-0.259c-4.494,0-7.664,0.259-9.114,0.259c-0.792,0-1.063-0.192-1.063-0.9
		c0-0.515,0.271-0.767,1.063-0.899c2.567-0.448,3.3-0.642,3.3-3.458V906.39c0-1.282-0.461-2.116-1.78-2.183
		c-1.851-0.06-2.447-0.192-2.447-0.959c0-0.642,0.461-0.834,1.253-0.834c1.254,0,2.58,0.259,6.54,0.259
		c4.49,0,6.01-0.259,6.862-0.259c0.929,0,1.26,0.192,1.26,0.768c0,0.833-0.527,0.899-2.309,1.025
		c-2.115,0.133-2.916,0.834-2.916,2.441V937.607"/>
	<path fill="#231F20" d="M482.803,907.091c0-1.728-0.46-2.109-2.111-2.109c-0.793,0-1.52,0.126-2.047,0.126
		c-0.855,0-0.991-0.192-0.991-0.834c0-1.342,9.644-2.624,14.927-2.624c12.276,0,19.94,7.948,19.94,20.835
		c0,9.032-5.15,20.58-17.695,20.58c-2.843,0-5.415-0.259-7.931-0.259c-5.345,0-7.196,0.259-8.583,0.259
		c-0.393,0-0.658-0.385-0.658-0.834c0-0.707,0.335-0.833,2.312-0.966c2.116-0.06,2.838-1.149,2.838-4.617V907.091 M489.273,936.14
		c0,3.65,1.792,5.125,5.217,5.125c6.806,0,10.905-7.948,10.905-17.946c0-11.797-4.767-19.878-12.029-19.878
		c-2.508,0-4.093,0.899-4.093,3.849V936.14z"/>
	<path fill="#231F20" d="M85.658,971.76c0.87,0,1.262-0.455,1.262-1.216v-14.355c0-2.669-0.234-3.054-2.748-3.354
		c-1.972-0.222-2.281-0.612-2.281-1.153c0-0.53,0.475-0.984,1.26-0.984c0.937,0,2.75,0.3,7.702,0.3c5.272,0,5.973-0.3,7.31-0.3
		c1.025,0,1.262,0.3,1.262,0.84c0,0.686-0.554,0.912-2.356,1.298c-1.974,0.382-2.441,0.685-2.441,2.292v38.459
		c0,1.829,0.395,2.521,2.831,3.354c1.571,0.541,2.198,0.393,2.198,1.381c0,0.612-0.469,0.768-1.494,0.768
		c-1.253,0-2.038-0.311-7.468-0.311c-4.402,0-6.68,0.311-7.934,0.311c-0.712,0-1.029-0.465-1.029-1.077
		c0-0.761,0.243-0.834,2.356-1.071c1.814-0.227,2.833-1.215,2.833-3.966v-17.857c0-0.768-0.392-1.226-1.262-1.226H72.142
		c-0.859,0-1.26,0.458-1.26,1.226v18.397c0,2.211,0.316,2.365,3.616,3.426c0.944,0.311,1.729,0.393,1.729,1.071
		c0,0.847-0.468,1.077-1.486,1.077c-1.419,0-3.543-0.311-7.233-0.311c-4.56,0-7.001,0.311-8.103,0.311
		c-0.944,0-1.262-0.155-1.262-0.923c0-0.767,0.403-0.833,1.888-1.226c2.599-0.685,3.148-1.215,3.148-3.662v-37.856
		c0-1.828-0.549-2.286-1.571-2.586c-1.419-0.458-3.063-0.082-3.063-1.077c0-0.686,0.39-1.061,1.411-1.061
		c1.571,0,3.308,0.3,7.783,0.3c4.554,0,6.291-0.228,7.86-0.3c0.554,0,1.029,0.227,1.029,0.758c0,1.07-0.786,0.686-3.624,1.38
		c-1.648,0.382-2.124,1.364-2.124,3.354v14.355c0,0.761,0.401,1.216,1.26,1.216H85.658"/>
	<path fill="#231F20" d="M116.412,999.823c-10.171,0-16.504-11.119-16.504-21.515s6.333-21.514,16.504-21.514
		c10.168,0,16.506,11.118,16.506,21.514S126.58,999.823,116.412,999.823 M116.412,958.629c-6.54,0-9.378,11.634-9.378,19.68
		c0,8.043,2.839,19.686,9.378,19.686c6.537,0,9.375-11.643,9.375-19.686C125.787,970.263,122.948,958.629,116.412,958.629"/>
	<path fill="#231F20" d="M159.38,987.659v-23.146c0-4.387-0.922-4.911-2.643-5.104c-1.852-0.189-2.046-0.388-2.046-0.979
		c0-0.458,0.265-0.85,1.389-0.85c0.727,0,1.781,0.259,4.162,0.259c2.709,0,3.366-0.259,4.355-0.259c0.663,0,1.323,0.325,1.323,0.85
		c0,0.656-0.402,0.846-2.116,0.979c-1.519,0.126-2.573,1.049-2.573,3.269v24.265c0,9.019-4.424,12.881-11.492,12.881
		c-6.871,0-13.068-1.769-13.068-9.616v-28.18c0-1.636-0.267-2.492-1.195-2.618c-2.312-0.322-2.514-0.587-2.514-1.111
		c0-0.392,0.332-0.717,0.928-0.717c1.262,0,2.574,0.259,6.139,0.259c4.169,0,6.41-0.259,6.871-0.259
		c0.792,0,1.125,0.325,1.125,0.717c0,0.657-0.401,0.724-2.447,1.111c-1.646,0.259-2.438,0.909-2.438,3.01v26.285
		c0,5.884,2.968,8.893,8.251,8.893C155.756,997.597,159.38,994.465,159.38,987.659"/>
	<path fill="#231F20" d="M186.282,967.257c0,0.912-0.325,1.304-1.058,1.304c-1.253,0-1.118-1.702-2.968-6.202
		c-1.183-2.883-2.444-4.26-5.479-4.26c-3.436,0-5.754,2.69-5.754,6.739c0,3.855,1.456,4.705,8.062,9.482
		c5.084,3.657,9.379,6.932,9.379,12.947c0,6.274-4.756,12.556-14.134,12.556c-3.307,0-8.978-1.304-8.978-3.729
		c0-9.809,0.392-10.263,1.519-10.263c1.449,0,0.723,1.437,2.574,6.147c1.579,3.982,3.827,6.016,7.263,6.016
		c3.963,0,6.872-2.949,6.872-7.263c0-11.576-17.7-10.136-17.7-23.475c0-5.17,4.418-10.462,11.485-10.462
		c4.759,0,8.125,0.912,8.593,1.569c0.325,0.458,0.325,1.045,0.325,1.895V967.257"/>
	<path fill="#231F20" d="M192.708,961.828c0-1.636-0.461-2.094-2.441-2.419c-1.254-0.189-1.848-0.133-1.848-0.979
		c0-0.724,0.527-0.85,1.917-0.85c0.59,0,2.106,0.259,10.497,0.259c6.931,0,10.031-0.259,11.952-0.259
		c1.183,0,1.514,0.259,1.514,1.241v8.302c0,0.855-0.265,1.178-0.722,1.178c-1.058,0-0.667-0.322-2.184-3.663
		c-1.784-3.922-3.63-5.229-8.714-5.229c-3.17,0-3.503,0.259-3.503,1.766v13.278c0,0.912,0.137,1.172,1.781,1.172
		c5.49,0,5.755-0.066,6.939-2.485c1.058-2.16,0.992-3.01,1.851-3.01c0.597,0,0.785,0.335,0.785,1.181
		c0,1.371-0.254,3.591-0.254,5.628c0,2.481,0.254,4.181,0.254,5.491c0,1.172-0.129,1.828-0.922,1.828
		c-0.986,0-0.986-1.311-1.713-3.597c-0.925-3.009-1.184-3.208-5.815-3.208c-2.639,0-2.905,0.066-2.905,1.181v12.489
		c0,4.712,0.792,6.082,5.288,6.082c4.353,0,6.471-1.828,8.191-6.407c1.312-3.464,1.254-3.723,1.911-3.723
		c0.597,0,0.729,0.192,0.729,1.497v9.29c0,0.915-0.262,1.171-1.585,1.171c-1.789,0-4.951-0.256-11.695-0.256
		c-7.458,0-9.371,0.256-12.542,0.256c-1.19,0-1.389-0.321-1.389-0.779c0-0.724,0.199-0.916,1.127-1.049
		c2.839-0.455,3.496-1.045,3.496-3.006V961.828"/>
	<path fill="#231F20" d="M253.667,997.862c2.831,0,5.747-1.607,7.391-7.942c1.814-6.871,1.966-7.017,2.759-7.017
		c1.328,0,1.485,0.146,1.485,8.545c0,3.967-0.232,5.037-1.168,5.884c-1.11,0.988-5.432,2.668-10.626,2.668
		c-12.419,0-20.044-11.832-20.044-25.27c0-15.416,8.886-24.949,19.971-24.949c4.093,0,7.465,0.758,9.821,2.211
		c0.878,0.533,0.944,0.688,0.944,6.024c0,5.649-0.151,5.959-1.486,5.959c-0.712,0-1.261-0.768-2.831-5.037
		c-2.283-6.186-4.17-7.026-6.843-7.026c-7.075,0-11.083,6.717-11.083,22.52C241.957,990.378,247.621,997.862,253.667,997.862"/>
	<path fill="#231F20" d="M289.239,975.625c0.722,0,1.055-0.392,1.055-1.049v-12.29c0-2.293-0.195-2.618-2.308-2.877
		c-1.656-0.189-1.922-0.521-1.922-0.979s0.403-0.85,1.058-0.85c0.792,0,2.319,0.259,6.47,0.259c4.432,0,5.021-0.259,6.146-0.259
		c0.862,0,1.058,0.259,1.058,0.717c0,0.591-0.469,0.789-1.987,1.111c-1.644,0.325-2.047,0.584-2.047,1.964v32.959
		c0,1.569,0.337,2.153,2.383,2.873c1.32,0.458,1.848,0.325,1.848,1.182c0,0.523-0.392,0.646-1.254,0.646
		c-1.055,0-1.715-0.256-6.274-0.256c-3.698,0-5.616,0.256-6.674,0.256c-0.589,0-0.851-0.388-0.851-0.912
		c0-0.656,0.196-0.717,1.975-0.916c1.526-0.189,2.379-1.045,2.379-3.397v-15.3c0-0.656-0.333-1.055-1.055-1.055h-11.366
		c-0.715,0-1.047,0.398-1.047,1.055v15.758c0,1.895,0.262,2.027,3.035,2.939c0.792,0.26,1.448,0.325,1.448,0.916
		c0,0.723-0.39,0.912-1.254,0.912c-1.183,0-2.967-0.256-6.068-0.256c-3.838,0-5.883,0.256-6.805,0.256
		c-0.793,0-1.055-0.123-1.055-0.779c0-0.657,0.332-0.724,1.585-1.049c2.182-0.587,2.643-1.045,2.643-3.139v-32.438
		c0-1.563-0.461-1.961-1.323-2.22c-1.184-0.388-2.573-0.066-2.573-0.912c0-0.591,0.332-0.916,1.184-0.916
		c1.323,0,2.779,0.259,6.54,0.259c3.826,0,5.283-0.205,6.606-0.259c0.461,0,0.851,0.192,0.851,0.65c0,0.913-0.655,0.591-3.033,1.178
		c-1.391,0.325-1.781,1.175-1.781,2.877v12.29c0,0.657,0.332,1.049,1.047,1.049H289.239"/>
	<path fill="#231F20" d="M310.695,984.258c-0.988,0-0.988,0.393-1.917,4.188c-1.316,5.495-1.648,6.341-1.648,6.799
		c0,0.85,0.531,1.506,1.98,1.961c1.262,0.392,3.104,0.133,3.104,0.982c0,0.392-0.198,0.846-1.187,0.846
		c-0.598,0-3.171-0.256-4.756-0.256c-3.171,0-4.295,0.256-4.955,0.256c-0.461,0-0.656-0.183-0.656-0.646
		c0-0.982,0.855-0.591,2.242-1.182c1.519-0.653,2.175-3.723,7.527-21.188c5.814-18.966,5.347-19.222,6.54-19.222
		c1.39,0,0.853,0.786,8.984,26.939c3.3,10.598,3.691,13.016,5.022,13.471c1.508,0.524,2.304,0.325,2.304,1.115
		c0,0.457-0.199,0.713-1.383,0.713c-1.064,0-3.171-0.256-5.618-0.256c-3.565,0-5.943,0.256-6.666,0.256
		c-0.732,0-0.862-0.321-0.862-0.779c0-0.591,0.657-0.524,2.908-1.049c0.859-0.189,1.118-0.979,1.118-1.496
		c0-0.588-0.325-1.443-1.648-6.155c-1.32-4.771-1.32-5.296-2.182-5.296H310.695 M318.418,982.43c0.462,0,0.598,0,0.598-0.199
		c0-0.457-0.401-1.635-2.909-10.263c-0.988-3.407-0.988-3.666-1.253-3.666c-0.332,0-0.332,0.392-2.508,8.103
		c-1.386,5.104-1.651,5.628-1.651,5.826c0,0.133,0.136,0.199,0.727,0.199H318.418z"/>
	<path fill="#231F20" d="M343.959,993.482c0,1.895,0.53,3.202,2.585,3.59c2.507,0.458,2.772,0.79,2.772,1.248
		c0,0.457-0.207,0.713-0.862,0.713c-1.449,0-3.896-0.256-7.068-0.256c-3.69,0-5.482,0.256-7.126,0.256
		c-0.663,0-0.988-0.256-0.988-0.846c0-0.458,0.254-0.85,1.38-0.982c2.115-0.189,2.837-1.437,2.837-2.74v-32.046
		c0-2.16-0.459-2.884-2.378-3.01c-1.514-0.133-1.839-0.388-1.839-0.853c0-0.65,0.458-0.976,1.184-0.976
		c1.851,0,3.768,0.259,6.599,0.259c3.504,0,5.882-0.259,9.712-0.259c7.192,0,11.558,4.572,11.558,10.721
		c0,5.819-4.823,9.025-10.168,9.748v0.126c1.982,0.332,2.768,1.244,3.756,3.209c5.424,10.787,6.079,14.576,7.997,15.82
		c1.323,0.85,2.378,0.26,2.378,1.248c0,0.324-0.203,0.58-0.792,0.58c-1.517,0-3.043-0.256-4.562-0.256
		c-1.645,0-2.172,0.256-3.503,0.256c-0.461,0-0.792-0.321-1.182-1.237l-8.119-17.526c-0.401-0.85-0.862-1.37-2.116-1.37
		c-1.455,0-2.054,0.322-2.054,1.569V993.482 M343.959,975.498c0,1.308,0.207,1.563,2.117,1.563c5.941,0,9.12-2.419,9.12-8.893
		c0-4.702-3.179-8.76-7.134-8.76c-3.3,0-4.17,0.85-4.104,3.468V975.498z"/>
	<path fill="#231F20" d="M371.068,962.286c0-2.027-0.461-2.552-2.116-2.877c-2.438-0.454-3.034-0.265-3.034-1.111
		c0-0.524,0.461-0.717,1.188-0.717c1.521,0,2.905,0.259,7.73,0.259c2.241,0,5.146-0.259,6.6-0.259c0.723,0,1.055,0.054,1.055,0.584
		c0,0.979-0.527,0.79-3.433,1.244c-0.855,0.126-1.519,0.982-1.519,2.485v32.438c0,2.094,0.265,2.153,3.104,2.873
		c1.516,0.392,2.055,0.26,2.055,1.049c0,0.392-0.207,0.779-1.262,0.779c-1.118,0-2.839-0.256-6.799-0.256
		c-5.478,0-6.606,0.256-7.789,0.256c-0.665,0-0.93-0.256-0.93-0.846c0-0.591,0.656-0.85,1.781-0.982
		c2.839-0.331,3.369-0.912,3.369-3.663V962.286"/>
	<path fill="#231F20" d="M405.782,957.84c3.046,0,2.381-2.617,3.839-2.617c0.459,0,0.851,0.397,0.851,1.048
		c0,1.055-0.195,2.227-0.922,11.643c-0.066,0.647-0.202,1.046-0.663,1.046c-0.922,0-0.591-0.524-2.104-5.104
		c-1.195-3.597-2.651-4.188-5.159-4.188c-1.389,0-1.651,0.325-1.651,1.121v33.151c0,1.961,0.398,3.132,2.641,3.265
		c2.514,0.133,2.712,0.26,2.712,0.982c0,0.59-0.335,0.846-1.127,0.846c-1.118,0-2.437-0.256-6.666-0.256
		c-5.345,0-7.528,0.256-8.449,0.256c-0.594,0-0.996-0.256-0.996-0.846c0-0.657,0.402-0.783,2.046-0.982
		c3.041-0.331,3.366-0.779,3.366-3.789v-32.311c0-1.178-0.461-1.438-1.78-1.438c-2.508,0-3.956,1.182-6.14,4.971
		c-1.917,3.53-1.917,4.254-2.506,4.254c-0.397,0-0.598-0.266-0.598-0.657c0-0.653,0.267-2.027,1.585-10.137
		c0.395-2.419,0.395-2.876,1.254-2.876c1.253,0,0.265,2.617,2.839,2.617H405.782"/>
	<path fill="#231F20" d="M416.444,962.286c0-2.027-0.469-2.552-2.112-2.877c-2.44-0.454-3.046-0.265-3.046-1.111
		c0-0.524,0.469-0.717,1.195-0.717c1.52,0,2.908,0.259,7.723,0.259c2.25,0,5.158-0.259,6.606-0.259c0.726,0,1.06,0.054,1.06,0.584
		c0,0.979-0.527,0.79-3.438,1.244c-0.859,0.126-1.52,0.982-1.52,2.485v32.438c0,2.094,0.268,2.153,3.104,2.873
		c1.519,0.392,2.046,0.26,2.046,1.049c0,0.392-0.193,0.779-1.253,0.779c-1.124,0-2.838-0.256-6.802-0.256
		c-5.482,0-6.599,0.256-7.794,0.256c-0.655,0-0.929-0.256-0.929-0.846c0-0.591,0.668-0.85,1.792-0.982
		c2.839-0.331,3.366-0.912,3.366-3.663V962.286"/>
	<path fill="#231F20" d="M433.351,961.828c0-1.636-0.461-2.094-2.44-2.419c-1.262-0.189-1.851-0.133-1.851-0.979
		c0-0.724,0.53-0.85,1.92-0.85c0.586,0,2.104,0.259,10.491,0.259c6.932,0,10.036-0.259,11.953-0.259
		c1.195,0,1.519,0.259,1.519,1.241v8.302c0,0.855-0.266,1.178-0.727,1.178c-1.053,0-0.655-0.322-2.171-3.663
		c-1.792-3.922-3.643-5.229-8.722-5.229c-3.171,0-3.496,0.259-3.496,1.766v13.278c0,0.912,0.13,1.172,1.781,1.172
		c5.474,0,5.747-0.066,6.932-2.485c1.05-2.16,0.991-3.01,1.851-3.01c0.597,0,0.784,0.335,0.784,1.181
		c0,1.371-0.257,3.591-0.257,5.628c0,2.481,0.257,4.181,0.257,5.491c0,1.172-0.129,1.828-0.922,1.828
		c-0.98,0-0.98-1.311-1.713-3.597c-0.922-3.009-1.185-3.208-5.815-3.208c-2.632,0-2.897,0.066-2.897,1.181v12.489
		c0,4.712,0.793,6.082,5.275,6.082c4.357,0,6.476-1.828,8.196-6.407c1.32-3.464,1.254-3.723,1.909-3.723
		c0.593,0,0.723,0.192,0.723,1.497v9.29c0,0.915-0.254,1.171-1.585,1.171c-1.773,0-4.943-0.256-11.68-0.256
		c-7.465,0-9.387,0.256-12.549,0.256c-1.19,0-1.39-0.321-1.39-0.779c0-0.724,0.199-0.916,1.128-1.049
		c2.839-0.455,3.495-1.045,3.495-3.006V961.828"/>
	<path fill="#231F20" d="M479.195,967.257c0,0.912-0.333,1.304-1.06,1.304c-1.252,0-1.124-1.702-2.964-6.202
		c-1.193-2.883-2.447-4.26-5.489-4.26c-3.428,0-5.747,2.69-5.747,6.739c0,3.855,1.457,4.705,8.063,9.482
		c5.084,3.657,9.37,6.932,9.37,12.947c0,6.274-4.747,12.556-14.134,12.556c-3.3,0-8.978-1.304-8.978-3.729
		c0-9.809,0.402-10.263,1.526-10.263c1.449,0,0.724,1.437,2.565,6.147c1.586,3.982,3.836,6.016,7.271,6.016
		c3.966,0,6.863-2.949,6.863-7.263c0-11.576-17.691-10.136-17.691-23.475c0-5.17,4.421-10.462,11.483-10.462
		c4.76,0,8.126,0.912,8.586,1.569c0.333,0.458,0.333,1.045,0.333,1.895V967.257"/>
	<path fill-rule="evenodd" clip-rule="evenodd" fill="#E13829" d="M328.137,380.236c29.338,24.523,58.451,53.604,111.613,51.444
		c-1.695,12.808-26.305,9.429-35.758,6.976c-22.613-5.87-45.389-17.343-63.649-33.129
		C331.985,398.293,320.645,390.957,328.137,380.236"/>
	<path fill-rule="evenodd" clip-rule="evenodd" fill="#E13829" d="M204.321,531.086c4.748,3.783,7.495,8.87,10.462,13.951
		c2.267,3.85,7.959,11.538,7.846,16.56c-0.24,12.337-28.329,27.902-38.363,31.389c-4.063,1.418-11.695,2.684-14.821,1.749
		c-5.065-1.513-11.5-14.725-14.82-20.049c-5.18-8.312-8.133-14.563-12.211-21.811c-2.889-1.459-6.576-2.145-9.588-3.486
		c-18.344-30.195-37.479-59.602-53.19-92.427c28.449-6.723,48.111-22.222,67.145-38.361c15.54,24.287,26.333,43.581,40.973,68.882
		c3.935,6.789,12.118,17.775,12.211,23.541c0.218,13.008-22.068,24.451-31.395,29.643c-4.123,2.299-11.491,5.58-10.456,10.469
		c2.278,10.809,20.18-1.658,24.409-4.364C190.057,541.955,197.002,536.088,204.321,531.086"/>
	<path fill-rule="evenodd" clip-rule="evenodd" fill="#E13829" d="M412.716,473.531c-2.651,12.638-19.903,6.976-29.645,5.227
		c-23.51-4.203-38.5-11.981-55.813-24.404c-8.445-6.075-26.968-15.057-18.301-27.031h2.614
		C337.755,450.252,365.342,471.781,412.716,473.531"/>
	<path fill-rule="evenodd" clip-rule="evenodd" fill="#E13829" d="M290.639,473.531c6.617,1.702,12.514,6.65,18.319,10.462
		c20.664,13.598,45.401,25.638,78.478,27.902c-2.845,9.673-18.205,6.287-28.781,4.37c-20.476-3.751-42.901-15.675-59.285-27.037
		C294.304,485.711,285.638,480.409,290.639,473.531"/>
	<path fill-rule="evenodd" clip-rule="evenodd" fill="#E13829" d="M368.25,531.086c-12.435,46.041-109.699,14.292-78.478-31.396
		C313.346,512.735,336.841,525.859,368.25,531.086"/>
	<path fill-rule="evenodd" clip-rule="evenodd" fill="#E13829" d="M513.86,55.802C512.017,39.928,513.2,21,501.657,14.829
		c-3.775-3.208-9.076-4.882-13.077-7.854C482.2,4.92,475.964,2.729,470.261,0c-5.217,5.103-15.41,1.292-21.787,6.107
		c-2.933,4.054-7.312,6.65-11.333,9.59c-7.001-2.305-9.235-9.369-20.071-7.85h-1.735c-3.51,2.018-10.736,0.3-15.697,0.878
		c-3.404,0.951-6.733,1.989-10.464,2.615c-2.925,2.596-6.766,4.279-8.722,7.847c-0.938,2.232,2.657,4.159,0,5.226v0.872
		c-1.033,5.934-8.879,5.081-10.456,10.462c-2.153,8.157-3.013,15.875-0.878,24.419c6.109,12.786,16.173,21.612,25.286,31.398h0.87
		c4.93,4.658,10.216,8.959,14.828,13.942c3.54,4.595,8.878,7.396,8.72,15.698c1.928,0.11,0.371,3.71,0.87,5.235
		c1.448,1.222,1.448,8.362,0,9.584c-1.073,15.795-7.514,26.213-7.846,42.729c-0.561,3.512,1.133,9.268-0.878,11.333h-0.866v0.884
		c3.186,3.214,9.922,7.484,16.558,4.345c-1.723-1.762,0.476-7.44-4.347-6.098c-0.063-4.124,3.185-4.958,5.223-6.976
		c0.749-21.938,12.724-32.636,20.061-47.958c3.011-4.26,6.274-8.264,10.459-11.34c9.489-7.654,20.354-13.951,30.524-20.924
		c2.544-3.274,5.442-6.18,8.713-8.715c4.394-9.268,9.989-17.336,13.954-27.031C513.796,64.467,514.302,60.611,513.86,55.802
		 M494.18,67.186c-0.737,1.232-1.787,2.081-2.99,2.883c-1.758,1.673-3.914,2.937-5.938,4.335c-1.958,2.059-2.721,5.435-4.14,6.732
		c-0.801,0.739-1.902,0.515-2.943,0.547c-2.107,1.497-4.457,2.75-6.164,4.635c-3.115,3.859-6.606,7.345-10.454,10.471
		c-0.395,0.206-0.8,0.474-1.217,0.768c-7.838,8.981-15.886,18.751-24.568,22.822c-0.157-0.828-0.339-1.629-0.541-2.428
		c-0.243-0.051-0.483-0.133-0.712-0.243c-0.174-1.857-0.558-3.625-1.11-5.337c-1.533-3.833-3.502-7.234-5.777-10.329
		c-6.702-8.466-16.896-15.559-24.497-23.567c-1.391-1.453-2.396-3.155-3.347-4.86c-1.63-2.005-3.135-4.137-4.484-6.43
		c-2.605-2.33-5.966-3.546-8.026-6.214c-0.444-0.502-0.861-1.033-1.209-1.629c-0.015-0.205-0.006-0.392-0.015-0.597
		c-0.144-0.376-0.265-0.768-0.354-1.194c-0.848-3.843-0.115-7.544,1.356-11.002c3.204-12.278,12.701-18.221,20.818-25.572
		c7.234-0.546,12.789,0.575,17.442,2.618c5.629,11.797,15.815,19.054,23.54,28.771c15.877-5.994-2.091-17.018-0.875-26.16
		c0.975-7.272,17.213-10.487,24.418-10.471c14.005,0.06,20.574,7.181,25.286,14.835C497.339,44.014,500.38,56.996,494.18,67.186"/>
	<path fill-rule="evenodd" clip-rule="evenodd" fill="#F5BF33" d="M272.719,508.457c-5.121,51.254,62.082,65.847,96.785,42.729
		c13.198,22.092-19.652,35.702-22.673,54.924c-2.982,19.032,15.115,33.504,17.442,52.321c1.478,11.952-0.296,25.364-1.745,39.233
		c-0.732,7.014-0.97,18.928-6.971,18.309c-4.049-0.397-3.579-5.811-5.239-10.455c-5.655-15.919-31.999-51.849-44.472-21.802
		c-13.486-3.29-23.042,4.039-21.794,18.315c-9.668,3.06-15.603,15.372-10.467,27.899c-13.114,16.878-4.653,47.838,6.982,60.166
		c-3.855,4.565-11.499,5.529-17.438,3.489c-20.668-7.118-14.523-44.869-15.699-67.142c-7.987,15.334-7.347,43.773-1.743,61.034
		c-31.605-7.711-17.707-58.505-14.824-84.586c-10.318,13.229-7.435,39.653-9.597,61.045c-27.797-3.91-12.862-50.81-11.332-72.378
		c-8.605,7.667-7.55,25.004-9.589,39.249c-13.302-4.44-13.973-31.219-8.719-49.704c6.016-21.161,20.265-43.923,32.254-66.28
		c10.856-20.21,26.622-45.391,28.782-68.872C254.484,526.235,248.306,508.258,272.719,508.457 M257.021,599.137
		c-13.88,7.237-27.787,30.782-34.006,44.469c2.565,1.215,3.3,4.26,6.976,4.363c8.727-13.676,16.007-33.387,28.766-40.11
		c-0.884,19.155-7.317,32.788-13.069,47.077c2.681,3.136,4.966,6.66,10.464,6.991c9.098-14.453,12.925-34.168,27.023-43.606
		c2.378,22.158-8.675,38.387-11.326,58.42c2.536,0.95,3.284,3.694,6.976,3.486c4.767-8.943,10.421-30.988,11.332-47.077
		c0.453-8.179,0.764-21.407-6.104-22.673c-10.604-1.971-12.988,14.958-20.922,18.306
		C265.387,620.148,267.251,593.797,257.021,599.137"/>
	<path fill-rule="evenodd" clip-rule="evenodd" fill="#231F20" d="M263.13,628.782c7.934-3.348,10.318-20.276,20.922-18.306
		c6.868,1.266,6.557,14.494,6.104,22.673c-0.911,16.089-6.565,38.134-11.332,47.077c-3.691,0.208-4.44-2.536-6.976-3.486
		c2.651-20.033,13.704-36.262,11.326-58.42c-14.098,9.438-17.925,29.153-27.023,43.606c-5.498-0.331-7.783-3.855-10.464-6.991
		c5.752-14.289,12.185-27.922,13.069-47.077c-12.759,6.724-20.04,26.435-28.766,40.11c-3.676-0.104-4.41-3.148-6.976-4.363
		c6.219-13.687,20.129-37.231,34.006-44.469C267.251,593.797,265.387,620.148,263.13,628.782"/>
	<path fill="#231F20" d="M568.87,857.497c-4.079,4.181-9.015,6.269-14.792,6.269c-5.791,0-10.713-2.088-14.776-6.269
		c-4.036-4.159-6.061-9.196-6.061-15.116c0-5.855,2.039-10.866,6.123-15.025c4.052-4.137,8.962-6.208,14.714-6.208
		c5.777,0,10.713,2.071,14.792,6.208c4.076,4.143,6.122,9.148,6.122,15.025C574.992,848.279,572.946,853.322,568.87,857.497
		 M541.37,829.449c-3.488,3.574-5.231,7.895-5.231,12.969c0,5.104,1.737,9.461,5.202,13.052c3.494,3.597,7.73,5.403,12.716,5.403
		c4.99,0,9.227-1.807,12.723-5.403c3.487-3.591,5.23-7.948,5.23-13.052c0-5.074-1.743-9.395-5.23-12.969
		c-3.51-3.606-7.746-5.406-12.723-5.406C549.112,824.043,544.882,825.843,541.37,829.449 M553.68,830.627
		c2.839,0,4.921,0.275,6.256,0.844c2.374,1.007,3.557,2.978,3.557,5.927c0,2.094-0.755,3.635-2.24,4.613
		c-0.793,0.534-1.902,0.909-3.314,1.137c1.788,0.297,3.104,1.056,3.934,2.286c0.829,1.232,1.254,2.447,1.254,3.619v1.705
		c0,0.553,0.014,1.121,0.05,1.74c0.038,0.619,0.107,1.023,0.204,1.216l0.151,0.287h-3.813c-0.021-0.072-0.036-0.154-0.058-0.228
		c-0.015-0.082-0.041-0.164-0.063-0.259l-0.072-0.751v-1.851c0-2.7-0.727-4.478-2.162-5.347c-0.851-0.502-2.348-0.751-4.475-0.751
		h-3.182v9.186h-4.051v-23.374H553.68z M558.033,834.306c-1.009-0.581-2.64-0.868-4.885-0.868h-3.442v8.479h3.649
		c1.703,0,2.99-0.17,3.835-0.515c1.585-0.65,2.37-1.86,2.37-3.666C559.56,836.033,559.054,834.891,558.033,834.306"/>
</g>
</svg>
